<?xml version="1.0" encoding="UTF-8"?>
<svg version="1.1" xmlns="http://www.w3.org/2000/svg" width="585" height="427">
<path d="M0 0 C1.70897116 -0.00458614 3.41794051 -0.00989867 5.12690735 -0.0158844 C8.67900156 -0.02472382 12.2308699 -0.02250066 15.78295898 -0.01245117 C19.36945974 -0.00327604 22.95530858 -0.01016122 26.54174805 -0.03295898 C46.52830093 -0.1593138 65.89626713 -0.07692233 85.48828125 4.43359375 C86.75357666 4.71162842 88.01887207 4.98966309 89.32250977 5.27612305 C92.21292603 5.95304116 95.06720754 6.69689944 97.92578125 7.49609375 C98.83908203 7.73908203 99.75238281 7.98207031 100.69335938 8.23242188 C109.13898419 10.51159192 117.20553536 13.03202662 124.98828125 17.05859375 C125.66262207 17.40269287 126.33696289 17.74679199 127.03173828 18.10131836 C128.4568177 18.83124909 129.88013792 19.56462369 131.30175781 20.30126953 C133.51322028 21.4465088 135.73111362 22.57862826 137.94921875 23.7109375 C148.80822071 29.30236153 158.46056371 35.63042728 167.94140625 43.359375 C169.62412635 44.72981116 171.32198548 46.0818883 173.03515625 47.4140625 C178.93913335 52.06912137 184.34115383 57.07797116 189.67578125 62.37109375 C190.34826904 63.03439697 191.02075684 63.6977002 191.71362305 64.38110352 C192.33406494 65.00557373 192.95450684 65.63004395 193.59375 66.2734375 C194.15215576 66.83409912 194.71056152 67.39476074 195.28588867 67.97241211 C196.48828125 69.43359375 196.48828125 69.43359375 196.48828125 71.43359375 C197.47828125 71.76359375 198.46828125 72.09359375 199.48828125 72.43359375 C200.99609375 73.9296875 200.99609375 73.9296875 202.61328125 75.87109375 C204.53188288 78.1454361 206.44665454 80.38944667 208.48828125 82.5546875 C220.44944933 95.24144115 230.06331787 109.6886029 237.48828125 125.43359375 C238.05240723 126.62178711 238.05240723 126.62178711 238.62792969 127.83398438 C250.99268168 154.2632531 257.7099008 181.83142387 257.73828125 210.99609375 C257.73928833 211.71747528 257.74029541 212.43885681 257.74133301 213.18209839 C257.71764872 238.45219088 254.04455046 261.99486802 244.48828125 285.43359375 C244.08005127 286.44752197 244.08005127 286.44752197 243.66357422 287.48193359 C240.22233363 295.95530974 236.34351599 303.69802553 231.3984375 311.40625 C229.58649447 314.27793885 227.95569221 317.18586973 226.36328125 320.18359375 C222.6144068 327.1544738 218.45249047 333.51578498 213.1796875 339.421875 C211.01615962 341.9951241 209.08507172 344.71096711 207.11328125 347.43359375 C203.82897489 351.86796024 200.50981033 355.45936459 196.2421875 358.93359375 C194.21615029 360.66632936 192.68146376 362.67001857 191.03125 364.75390625 C186.16948354 370.04646214 180.34138931 375.09956419 173.48828125 377.43359375 C173.48828125 378.09359375 173.48828125 378.75359375 173.48828125 379.43359375 C172.49828125 379.43359375 171.50828125 379.43359375 170.48828125 379.43359375 C170.15828125 380.42359375 169.82828125 381.41359375 169.48828125 382.43359375 C167.97631836 383.64111328 167.97631836 383.64111328 166.015625 384.81640625 C165.28907715 385.25686279 164.5625293 385.69731934 163.81396484 386.15112305 C162.63181396 386.84782104 162.63181396 386.84782104 161.42578125 387.55859375 C160.61447754 388.04432861 159.80317383 388.53006348 158.96728516 389.03051758 C156.48162711 390.51111362 153.98727682 391.97563779 151.48828125 393.43359375 C150.77526855 393.85012207 150.06225586 394.26665039 149.32763672 394.69580078 C145.38935629 396.98263589 141.42308231 399.21072052 137.42089844 401.38378906 C136.15275573 402.07264879 134.88765106 402.76713721 133.62597656 403.46777344 C112.98776302 414.86076507 89.67598473 420.91051647 66.48828125 424.43359375 C65.78413086 424.5409082 65.07998047 424.64822266 64.35449219 424.75878906 C29.35515678 429.82765833 -9.45164013 427.09187598 -43.51171875 417.43359375 C-44.63964844 417.11390625 -45.76757812 416.79421875 -46.9296875 416.46484375 C-59.61435333 412.70642424 -71.18134172 407.75617214 -82.76171875 401.421875 C-85.61235763 399.87469075 -88.45918472 398.54848411 -91.51171875 397.43359375 C-91.51171875 396.77359375 -91.51171875 396.11359375 -91.51171875 395.43359375 C-92.22714844 395.32660156 -92.94257813 395.21960938 -93.6796875 395.109375 C-104.40894587 392.54915197 -114.14071161 383.44116191 -122.70849609 376.82128906 C-124.30552166 375.59227561 -125.91735108 374.38255173 -127.53125 373.17578125 C-128.34980469 372.55960937 -129.16835937 371.9434375 -130.01171875 371.30859375 C-131.048125 370.53128906 -131.048125 370.53128906 -132.10546875 369.73828125 C-132.8015625 369.09246094 -132.8015625 369.09246094 -133.51171875 368.43359375 C-133.51171875 367.77359375 -133.51171875 367.11359375 -133.51171875 366.43359375 C-134.30835938 366.12421875 -134.30835938 366.12421875 -135.12109375 365.80859375 C-138.51945311 363.85398183 -141.02227803 361.21235658 -143.76171875 358.43359375 C-144.31601563 357.88703125 -144.8703125 357.34046875 -145.44140625 356.77734375 C-149.51171875 352.68698045 -149.51171875 352.68698045 -149.51171875 350.43359375 C-150.50171875 350.10359375 -151.49171875 349.77359375 -152.51171875 349.43359375 C-152.51171875 348.77359375 -152.51171875 348.11359375 -152.51171875 347.43359375 C-153.50171875 347.10359375 -154.49171875 346.77359375 -155.51171875 346.43359375 C-157.33641887 344.32153928 -159.0292008 342.22357846 -160.69921875 339.99609375 C-161.3943457 339.09793945 -161.3943457 339.09793945 -162.10351562 338.18164062 C-165.51171875 333.69927628 -165.51171875 333.69927628 -165.51171875 331.43359375 C-166.50171875 331.10359375 -167.49171875 330.77359375 -168.51171875 330.43359375 C-169.8359375 328.60546875 -169.8359375 328.60546875 -171.19921875 326.18359375 C-173.52310922 322.11822706 -175.96952493 318.17847386 -178.51171875 314.24609375 C-181.77806157 308.96778311 -184.18203729 303.72818141 -186.36108398 297.95043945 C-187.87064691 293.95937506 -189.58408787 290.20623371 -191.57421875 286.43359375 C-213.02896061 244.42039168 -210.06186463 189.11030771 -196.54785156 145.30957031 C-194.62085916 139.42863385 -192.52196771 133.64363015 -190.13671875 127.93359375 C-189.83636719 127.21147705 -189.53601563 126.48936035 -189.2265625 125.74536133 C-186.59473963 119.49547607 -183.72287386 113.40899063 -180.51171875 107.43359375 C-179.9909375 106.46164063 -179.47015625 105.4896875 -178.93359375 104.48828125 C-173.35187766 94.49857441 -166.62182394 85.01179631 -158.25805664 77.14868164 C-156.50765113 75.42959892 -154.92334444 73.64003206 -153.33203125 71.7734375 C-149.4204971 67.27179454 -145.28809424 63.02626211 -141.07421875 58.80859375 C-140.36201172 58.08414063 -139.64980469 57.3596875 -138.91601562 56.61328125 C-134.90196058 52.58828872 -130.82922545 48.98364462 -126.19262695 45.68969727 C-124.30142601 44.34455073 -124.30142601 44.34455073 -122.13671875 41.99609375 C-102.99949998 23.31452305 -74.57481474 13.7264133 -49.51171875 6.43359375 C-47.83722656 5.94246094 -47.83722656 5.94246094 -46.12890625 5.44140625 C-30.97023343 1.34560886 -15.64141813 -0.03784756 0 0 Z " fill="#030303" transform="translate(267.51171875,-0.43359375)"/>
<path d="M0 0 C1.70897116 -0.00458614 3.41794051 -0.00989867 5.12690735 -0.0158844 C8.67900156 -0.02472382 12.2308699 -0.02250066 15.78295898 -0.01245117 C19.36945974 -0.00327604 22.95530858 -0.01016122 26.54174805 -0.03295898 C46.52830093 -0.1593138 65.89626713 -0.07692233 85.48828125 4.43359375 C86.75357666 4.71162842 88.01887207 4.98966309 89.32250977 5.27612305 C92.21292603 5.95304116 95.06720754 6.69689944 97.92578125 7.49609375 C98.83908203 7.73908203 99.75238281 7.98207031 100.69335938 8.23242188 C109.13898419 10.51159192 117.20553536 13.03202662 124.98828125 17.05859375 C125.66262207 17.40269287 126.33696289 17.74679199 127.03173828 18.10131836 C128.4568177 18.83124909 129.88013792 19.56462369 131.30175781 20.30126953 C133.51322028 21.4465088 135.73111362 22.57862826 137.94921875 23.7109375 C148.80822071 29.30236153 158.46056371 35.63042728 167.94140625 43.359375 C169.62412635 44.72981116 171.32198548 46.0818883 173.03515625 47.4140625 C178.93913335 52.06912137 184.34115383 57.07797116 189.67578125 62.37109375 C190.34826904 63.03439697 191.02075684 63.6977002 191.71362305 64.38110352 C192.33406494 65.00557373 192.95450684 65.63004395 193.59375 66.2734375 C194.15215576 66.83409912 194.71056152 67.39476074 195.28588867 67.97241211 C196.48828125 69.43359375 196.48828125 69.43359375 196.48828125 71.43359375 C197.47828125 71.76359375 198.46828125 72.09359375 199.48828125 72.43359375 C200.99609375 73.9296875 200.99609375 73.9296875 202.61328125 75.87109375 C204.53188288 78.1454361 206.44665454 80.38944667 208.48828125 82.5546875 C220.44944933 95.24144115 230.06331787 109.6886029 237.48828125 125.43359375 C238.05240723 126.62178711 238.05240723 126.62178711 238.62792969 127.83398438 C250.99268168 154.2632531 257.7099008 181.83142387 257.73828125 210.99609375 C257.73928833 211.71747528 257.74029541 212.43885681 257.74133301 213.18209839 C257.71764872 238.45219088 254.04455046 261.99486802 244.48828125 285.43359375 C244.08005127 286.44752197 244.08005127 286.44752197 243.66357422 287.48193359 C240.22233363 295.95530974 236.34351599 303.69802553 231.3984375 311.40625 C229.58649447 314.27793885 227.95569221 317.18586973 226.36328125 320.18359375 C222.6144068 327.1544738 218.45249047 333.51578498 213.1796875 339.421875 C211.01615962 341.9951241 209.08507172 344.71096711 207.11328125 347.43359375 C203.82897489 351.86796024 200.50981033 355.45936459 196.2421875 358.93359375 C194.21615029 360.66632936 192.68146376 362.67001857 191.03125 364.75390625 C186.16948354 370.04646214 180.34138931 375.09956419 173.48828125 377.43359375 C173.48828125 378.09359375 173.48828125 378.75359375 173.48828125 379.43359375 C172.49828125 379.43359375 171.50828125 379.43359375 170.48828125 379.43359375 C170.15828125 380.42359375 169.82828125 381.41359375 169.48828125 382.43359375 C167.97631836 383.64111328 167.97631836 383.64111328 166.015625 384.81640625 C165.28907715 385.25686279 164.5625293 385.69731934 163.81396484 386.15112305 C162.63181396 386.84782104 162.63181396 386.84782104 161.42578125 387.55859375 C160.61447754 388.04432861 159.80317383 388.53006348 158.96728516 389.03051758 C156.48162711 390.51111362 153.98727682 391.97563779 151.48828125 393.43359375 C150.77526855 393.85012207 150.06225586 394.26665039 149.32763672 394.69580078 C145.38935629 396.98263589 141.42308231 399.21072052 137.42089844 401.38378906 C136.15275573 402.07264879 134.88765106 402.76713721 133.62597656 403.46777344 C112.98776302 414.86076507 89.67598473 420.91051647 66.48828125 424.43359375 C65.78413086 424.5409082 65.07998047 424.64822266 64.35449219 424.75878906 C29.35515678 429.82765833 -9.45164013 427.09187598 -43.51171875 417.43359375 C-44.63964844 417.11390625 -45.76757812 416.79421875 -46.9296875 416.46484375 C-59.61435333 412.70642424 -71.18134172 407.75617214 -82.76171875 401.421875 C-85.61235763 399.87469075 -88.45918472 398.54848411 -91.51171875 397.43359375 C-91.51171875 396.77359375 -91.51171875 396.11359375 -91.51171875 395.43359375 C-92.22714844 395.32660156 -92.94257813 395.21960938 -93.6796875 395.109375 C-104.40894587 392.54915197 -114.14071161 383.44116191 -122.70849609 376.82128906 C-124.30552166 375.59227561 -125.91735108 374.38255173 -127.53125 373.17578125 C-128.34980469 372.55960937 -129.16835937 371.9434375 -130.01171875 371.30859375 C-131.048125 370.53128906 -131.048125 370.53128906 -132.10546875 369.73828125 C-132.8015625 369.09246094 -132.8015625 369.09246094 -133.51171875 368.43359375 C-133.51171875 367.77359375 -133.51171875 367.11359375 -133.51171875 366.43359375 C-134.30835938 366.12421875 -134.30835938 366.12421875 -135.12109375 365.80859375 C-138.51945311 363.85398183 -141.02227803 361.21235658 -143.76171875 358.43359375 C-144.31601563 357.88703125 -144.8703125 357.34046875 -145.44140625 356.77734375 C-149.51171875 352.68698045 -149.51171875 352.68698045 -149.51171875 350.43359375 C-150.50171875 350.10359375 -151.49171875 349.77359375 -152.51171875 349.43359375 C-152.51171875 348.77359375 -152.51171875 348.11359375 -152.51171875 347.43359375 C-153.50171875 347.10359375 -154.49171875 346.77359375 -155.51171875 346.43359375 C-157.33641887 344.32153928 -159.0292008 342.22357846 -160.69921875 339.99609375 C-161.3943457 339.09793945 -161.3943457 339.09793945 -162.10351562 338.18164062 C-165.51171875 333.69927628 -165.51171875 333.69927628 -165.51171875 331.43359375 C-166.50171875 331.10359375 -167.49171875 330.77359375 -168.51171875 330.43359375 C-169.8359375 328.60546875 -169.8359375 328.60546875 -171.19921875 326.18359375 C-173.52310922 322.11822706 -175.96952493 318.17847386 -178.51171875 314.24609375 C-181.77806157 308.96778311 -184.18203729 303.72818141 -186.36108398 297.95043945 C-187.87064691 293.95937506 -189.58408787 290.20623371 -191.57421875 286.43359375 C-213.02896061 244.42039168 -210.06186463 189.11030771 -196.54785156 145.30957031 C-194.62085916 139.42863385 -192.52196771 133.64363015 -190.13671875 127.93359375 C-189.83636719 127.21147705 -189.53601563 126.48936035 -189.2265625 125.74536133 C-186.59473963 119.49547607 -183.72287386 113.40899063 -180.51171875 107.43359375 C-179.9909375 106.46164063 -179.47015625 105.4896875 -178.93359375 104.48828125 C-173.35187766 94.49857441 -166.62182394 85.01179631 -158.25805664 77.14868164 C-156.50765113 75.42959892 -154.92334444 73.64003206 -153.33203125 71.7734375 C-149.4204971 67.27179454 -145.28809424 63.02626211 -141.07421875 58.80859375 C-140.36201172 58.08414063 -139.64980469 57.3596875 -138.91601562 56.61328125 C-134.90196058 52.58828872 -130.82922545 48.98364462 -126.19262695 45.68969727 C-124.30142601 44.34455073 -124.30142601 44.34455073 -122.13671875 41.99609375 C-102.99949998 23.31452305 -74.57481474 13.7264133 -49.51171875 6.43359375 C-47.83722656 5.94246094 -47.83722656 5.94246094 -46.12890625 5.44140625 C-30.97023343 1.34560886 -15.64141813 -0.03784756 0 0 Z M-28.40234375 9.71875 C-31.41182259 10.41062767 -34.39614825 10.91474856 -37.44921875 11.37109375 C-46.32305469 12.78150476 -55.07694963 15.28041049 -63.42578125 18.609375 C-65.03277032 19.24434634 -66.65606979 19.83814602 -68.28515625 20.4140625 C-77.17830972 23.63096863 -85.31657909 27.84823584 -93.59326172 32.390625 C-95.23237318 33.28172759 -96.88809875 34.14215489 -98.546875 34.99609375 C-105.83265088 38.77310864 -112.37938909 43.39849848 -118.95458984 48.27880859 C-120.25415665 49.24258266 -121.56342569 50.19325645 -122.875 51.140625 C-157.73034693 77.0688021 -182.90960216 118.04108351 -191.86328125 160.38671875 C-192.29323915 162.40700286 -192.76696819 164.41849562 -193.28515625 166.41796875 C-197.3588163 182.30927625 -197.70413853 198.37331613 -197.76171875 214.68359375 C-197.76698578 215.44205597 -197.77225281 216.20051819 -197.77767944 216.98196411 C-197.85744026 231.85062527 -196.54995592 246.03281275 -192.57421875 260.43359375 C-192.19620117 261.87025391 -192.19620117 261.87025391 -191.81054688 263.3359375 C-189.86492383 270.59097176 -187.33835551 277.47571865 -184.51171875 284.43359375 C-181.27095359 283.74007237 -181.27095359 283.74007237 -180.1015625 280.71875 C-179.57691406 279.63464844 -179.05226563 278.55054688 -178.51171875 277.43359375 C-177.08480275 275.5389226 -175.60354708 273.68410862 -174.07421875 271.87109375 C-173.31238281 270.96230469 -172.55054688 270.05351562 -171.765625 269.1171875 C-170.34724025 267.42840011 -168.89642603 265.76582917 -167.4019928 264.14395142 C-165.15534693 260.92261224 -165.01281261 259.27403373 -165.01342773 255.38427734 C-165.00339218 254.18467377 -164.99335663 252.98507019 -164.98301697 251.74911499 C-164.99119949 250.45647736 -164.99938202 249.16383972 -165.0078125 247.83203125 C-165.00042994 246.47220557 -164.99087356 245.11239015 -164.97926331 243.75259399 C-164.9471491 239.43786543 -164.94753115 235.12341842 -164.94921875 230.80859375 C-164.94634758 225.17041044 -164.928694 219.53253838 -164.8828125 213.89453125 C-164.87746365 213.21158304 -164.87211479 212.52863483 -164.86660385 211.82499123 C-164.75736511 200.74014698 -163.63963155 190.28685395 -161.51171875 179.43359375 C-161.21084141 177.37516929 -160.92702157 175.31410515 -160.66796875 173.25 C-160.55767334 172.37545166 -160.44737793 171.50090332 -160.33374023 170.59985352 C-160.22747314 169.74061279 -160.12120605 168.88137207 -160.01171875 167.99609375 C-159.05333746 160.48654187 -158.05224988 152.9858721 -156.94921875 145.49609375 C-156.83449219 144.69824463 -156.71976563 143.90039551 -156.6015625 143.07836914 C-156.05907976 139.45321279 -155.41641774 135.93856982 -154.4609375 132.3984375 C-153.376919 128.25323719 -153.07701411 124.20126032 -152.88671875 119.93359375 C-152.76296875 117.45859375 -152.63921875 114.98359375 -152.51171875 112.43359375 C-142.28171875 112.43359375 -132.05171875 112.43359375 -121.51171875 112.43359375 C-121.94484375 114.82609375 -122.37796875 117.21859375 -122.82421875 119.68359375 C-122.95352783 120.4096582 -123.08283691 121.13572266 -123.21606445 121.88378906 C-123.96720191 125.95549401 -124.88179503 129.9520171 -125.91796875 133.9609375 C-127.65564401 140.79806499 -129.00629612 147.69507821 -130.30151367 154.6262207 C-130.70220808 156.76202766 -131.11357511 158.89560975 -131.52539062 161.02929688 C-131.78580352 162.41003433 -132.04559171 163.79088978 -132.3046875 165.171875 C-132.53696045 166.39946533 -132.7692334 167.62705566 -133.00854492 168.8918457 C-133.68147882 173.62850368 -134.1490547 177.80484632 -132.38671875 182.30859375 C-129.88420514 185.14477584 -128.21767535 185.00302814 -124.51171875 185.43359375 C-122.6255337 185.52267315 -120.73690755 185.56853328 -118.84863281 185.57543945 C-117.76020081 185.58247391 -116.6717688 185.58950836 -115.550354 185.59675598 C-114.38776062 185.60092026 -113.22516724 185.60508453 -112.02734375 185.609375 C-109.54035613 185.63257428 -107.05337693 185.65669166 -104.56640625 185.68164062 C-100.66498164 185.71671126 -96.76386761 185.74608635 -92.86230469 185.75952148 C-89.08360662 185.77506283 -85.3058032 185.81531083 -81.52734375 185.859375 C-80.37284729 185.85746658 -79.21835083 185.85555817 -78.02886963 185.85359192 C-71.47842888 185.95170174 -66.39987921 186.80683609 -60.43695068 189.57878113 C-58.55814384 190.56886144 -58.55814384 190.56886144 -56.51171875 190.43359375 C-50.79555938 200.98650335 -48.57814115 213.22407279 -46.13671875 224.87109375 C-44.67432703 231.75951812 -43.15082976 238.63288134 -41.57421875 245.49609375 C-41.3333252 246.59171631 -41.09243164 247.68733887 -40.84423828 248.81616211 C-39.22029291 256.45362687 -39.22029291 256.45362687 -34.51171875 262.43359375 C-27.93748155 264.97980083 -21.3376195 264.78131552 -14.359375 264.84765625 C-12.68917297 264.87412231 -12.68917297 264.87412231 -10.98522949 264.90112305 C-6.84836953 264.96392008 -2.71127336 265.01029282 1.42578125 265.05859375 C10.68640625 265.18234375 19.94703125 265.30609375 29.48828125 265.43359375 C29.81828125 285.23359375 30.14828125 305.03359375 30.48828125 325.43359375 C58.53828125 325.43359375 86.58828125 325.43359375 115.48828125 325.43359375 C116.97328125 318.50359375 116.97328125 318.50359375 118.48828125 311.43359375 C119.46818741 308.24099627 120.44895649 305.04851864 121.46484375 301.8671875 C122.56698051 298.16956074 123.45401228 294.44537383 124.30078125 290.68359375 C126.19788065 282.30635126 128.50834575 274.06311601 130.84863281 265.80029297 C133.06216548 257.97953878 135.19021137 250.14305733 137.22265625 242.2734375 C138.15460013 238.67157998 139.13400777 235.08496619 140.12890625 231.5 C140.40661865 230.48180176 140.68433105 229.46360352 140.97045898 228.41455078 C141.50698641 226.44796717 142.0527425 224.48386767 142.60961914 222.52294922 C145.1247713 213.55560613 145.1247713 213.55560613 144.48828125 204.43359375 C142.72720049 202.32379766 140.85173028 200.81547187 138.65820312 199.16357422 C135.10695524 196.33232506 132.79316896 192.71137032 130.23828125 188.99609375 C129.68672363 188.22418701 129.13516602 187.45228027 128.56689453 186.65698242 C125.74877869 182.71282629 123.01748322 178.72924286 120.37109375 174.66796875 C115.70886799 166.9200763 115.70886799 166.9200763 108.29296875 162.6640625 C105.45012107 162.914902 103.13708273 163.39075852 100.48828125 164.43359375 C98.13599841 160.90516948 97.82578373 158.88636156 97.9140625 154.73046875 C98.84947894 150.988803 101.09694 149.47060313 104.26953125 147.4765625 C107.71489155 145.85700053 109.75590311 145.6192567 113.48828125 146.43359375 C120.50387535 150.35840164 124.89336028 158.10335688 129.48828125 164.43359375 C133.37035122 169.53463369 137.34773076 174.5402159 141.48828125 179.43359375 C145.41903769 178.85906629 145.41903769 178.85906629 148.48828125 176.43359375 C149.61234919 169.20744269 146.23964552 162.97942194 143.48828125 156.43359375 C142.87726563 154.97566406 142.87726563 154.97566406 142.25390625 153.48828125 C141.43965272 151.54781992 140.62452335 149.60772592 139.80859375 147.66796875 C136.51397844 139.59713598 133.53920813 131.39423438 130.61328125 123.18359375 C128.08586185 116.18540305 125.26658027 109.29977052 122.48828125 102.3984375 C122.16214844 101.58745605 121.83601563 100.77647461 121.5 99.94091797 C120.79810011 98.2014122 120.09207994 96.46356553 119.3828125 94.72705078 C119.02574219 93.84774902 118.66867187 92.96844727 118.30078125 92.0625 C117.97722656 91.27045166 117.65367187 90.47840332 117.3203125 89.66235352 C116.48828125 87.43359375 116.48828125 87.43359375 115.48828125 83.43359375 C128.85328125 83.92859375 128.85328125 83.92859375 142.48828125 84.43359375 C148.08514906 97.22643446 153.21264283 110.13160757 157.48828125 123.43359375 C158.14828125 123.43359375 158.80828125 123.43359375 159.48828125 123.43359375 C159.60042969 124.29017578 159.60042969 124.29017578 159.71484375 125.1640625 C160.79141474 131.80291694 163.11978377 137.24292425 166.046875 143.2734375 C167.30104292 146.0230902 168.20843293 148.58683925 168.98828125 151.49609375 C170.03589921 155.329143 171.51509838 158.60297915 173.36328125 162.12109375 C179.31050988 173.66137363 182.27407371 185.74240417 184.48828125 198.43359375 C185.14828125 198.43359375 185.80828125 198.43359375 186.48828125 198.43359375 C186.58109375 200.13515625 186.58109375 200.13515625 186.67578125 201.87109375 C187.2700508 207.18650477 188.77454835 212.16491483 190.32763672 217.25927734 C192.27234263 223.64030025 194.05760504 230.05722687 195.80078125 236.49609375 C196.06721436 237.47860107 196.33364746 238.4611084 196.6081543 239.47338867 C197.23629501 241.79307415 197.86307638 244.11311559 198.48828125 246.43359375 C200.30199219 246.47226562 200.30199219 246.47226562 202.15234375 246.51171875 C215.23078138 246.91530802 226.58094807 248.78097072 238.5234375 254.50390625 C240.80741264 255.58459429 243.13611439 256.51229442 245.48828125 257.43359375 C245.97351276 254.83043353 246.45151379 252.22625595 246.92578125 249.62109375 C247.1278418 248.54311523 247.1278418 248.54311523 247.33398438 247.44335938 C254.08766673 210.05102046 248.68463692 170.05026162 233.48828125 135.43359375 C233.15779785 134.67731689 232.82731445 133.92104004 232.48681641 133.1418457 C222.32848987 110.27887469 208.6937822 89.6390947 190.984375 71.9296875 C189.32217268 70.26748518 187.67741931 68.58764644 186.05078125 66.890625 C179.35138889 59.97677039 172.26205045 54.1005447 164.48828125 48.43359375 C163.65683594 47.81871094 162.82539063 47.20382813 161.96875 46.5703125 C136.61136048 28.27766832 107.7540103 16.31398722 77.21386719 10.00097656 C75.42959212 9.6295456 73.64867989 9.24147892 71.87207031 8.83496094 C55.28321328 5.10993644 38.72118041 5.06168182 21.80078125 5.05859375 C20.66526825 5.05669037 19.52975525 5.05478699 18.35983276 5.05282593 C2.27524129 5.05587426 -12.73235407 5.87769155 -28.40234375 9.71875 Z " fill="#F9F9F9" transform="translate(267.51171875,-0.43359375)"/>
<path d="M0 0 C23.42445591 -0.46745034 41.73069454 6.71745343 58.63671875 22.70703125 C72.30315929 36.82971108 79.01935041 53.96813007 80.17919922 73.41650391 C80.48209441 79.39200049 80.48209441 79.39200049 83.8984375 84.1171875 C87.3234161 86.26881641 90.10732707 86.37570356 94.11199951 86.3956604 C95.38803543 86.40682388 96.66407135 86.41798737 97.97877502 86.42948914 C99.39047212 86.43185403 100.80216954 86.43402969 102.21386719 86.43603516 C103.70212855 86.44533445 105.19038469 86.45550312 106.67863464 86.46647644 C110.7175141 86.49379048 114.75635865 86.50892999 118.79530621 86.52190447 C123.01675612 86.53752886 127.2381347 86.56432129 131.45953369 86.5899353 C139.45275748 86.63673534 147.44599467 86.67347352 155.43928552 86.70660818 C164.53961195 86.74482091 173.63986675 86.79423329 182.74013281 86.84459233 C201.45951529 86.9479304 220.17894148 87.03718471 238.8984375 87.1171875 C238.8984375 86.4571875 238.8984375 85.7971875 238.8984375 85.1171875 C240.11080078 84.32054687 240.11080078 84.32054687 241.34765625 83.5078125 C244.31414142 80.72758444 244.53015895 79.06746874 244.69335938 75.078125 C244.70206055 73.98371094 244.70206055 73.98371094 244.7109375 72.8671875 C244.73607422 72.12210937 244.76121094 71.37703125 244.78710938 70.609375 C244.84576852 68.77920957 244.8750183 66.94814297 244.8984375 65.1171875 C245.5584375 65.1171875 246.2184375 65.1171875 246.8984375 65.1171875 C246.7953125 64.2303125 246.6921875 63.3434375 246.5859375 62.4296875 C246.61664539 47.22928319 258.70021411 31.54655194 268.8984375 21.1171875 C274.28758073 16.1171875 274.28758073 16.1171875 276.8984375 16.1171875 C276.8984375 15.4571875 276.8984375 14.7971875 276.8984375 14.1171875 C278.30886706 13.27334075 279.72707882 12.44249254 281.1484375 11.6171875 C281.93734375 11.153125 282.72625 10.6890625 283.5390625 10.2109375 C285.8984375 9.1171875 285.8984375 9.1171875 289.8984375 9.1171875 C291.38970617 14.58122223 292.87966387 20.04560095 294.36328125 25.51171875 C296.83906467 34.62469113 299.32540078 43.73084257 301.96875 52.796875 C302.65164587 55.23578881 303.289664 57.6660972 303.890625 60.125 C304.05933105 60.80119385 304.22803711 61.4773877 304.40185547 62.17407227 C304.86886748 64.06025895 305.32163917 65.94995521 305.7734375 67.83984375 C306.96201154 71.30239104 308.45404929 73.423268 310.8984375 76.1171875 C309.38590098 81.07494608 306.47645163 84.21583417 303.0234375 87.9296875 C302.49363281 88.52716797 301.96382813 89.12464844 301.41796875 89.74023438 C299.84375 91.44921875 299.84375 91.44921875 296.8984375 94.1171875 C295.5784375 94.1171875 294.2584375 94.1171875 292.8984375 94.1171875 C288.84600118 86.96323532 288.52364027 81.14560719 288.8984375 73.0546875 C289.15550583 62.54259382 287.90365245 54.14221752 284.8984375 44.1171875 C284.13780294 40.46446987 283.49151849 36.80053257 282.8984375 33.1171875 C272.86886066 37.83698837 268.13514553 50.24143864 264.5859375 60.0546875 C260.26788244 75.09709243 262.11735675 91.11940591 269.37890625 104.93359375 C270.23528098 106.38967067 271.12801403 107.82593623 272.078125 109.22265625 C272.8984375 111.1171875 272.8984375 111.1171875 273.01953125 113.48828125 C271.23076891 117.68283545 267.80229058 119.51897651 264.0859375 121.9921875 C263.3127417 122.52030029 262.5395459 123.04841309 261.74291992 123.5925293 C251.23312252 130.70123191 240.2724608 136.54703225 228.8984375 142.1171875 C227.73699219 142.74238281 226.57554687 143.36757813 225.37890625 144.01171875 C219.33202659 147.03371022 212.86864205 149.00988564 206.4609375 151.1171875 C205.79402893 151.33818115 205.12712036 151.5591748 204.44000244 151.78686523 C194.36528463 155.1171805 184.33243991 158.11694713 173.8984375 160.1171875 C172.81046875 160.32730469 171.7225 160.53742188 170.6015625 160.75390625 C159.23925216 162.78701 147.94164346 163.30376533 136.42114258 163.30249023 C134.23173262 163.30466683 132.04283643 163.3228662 129.85351562 163.34179688 C114.87361145 163.40163026 100.53300463 161.2818524 85.8984375 158.1171875 C84.87878906 157.91480469 83.85914063 157.71242188 82.80859375 157.50390625 C62.67036714 153.27928471 42.60834326 145.61194647 24.8984375 135.1171875 C24.8984375 134.1271875 24.8984375 133.1371875 24.8984375 132.1171875 C25.51589844 131.83746094 26.13335937 131.55773437 26.76953125 131.26953125 C32.42309115 128.5933408 37.18565531 125.57976428 41.98828125 121.5703125 C43.8984375 120.1171875 43.8984375 120.1171875 46.8984375 119.1171875 C47.58463781 117.79380118 48.24630211 116.45768802 48.8984375 115.1171875 C49.6409375 114.2715625 50.3834375 113.4259375 51.1484375 112.5546875 C61.53918379 100.22720448 64.11717274 84.86572549 63.10986328 69.17480469 C61.48080746 53.32066792 53.15870386 40.15120854 41.33203125 29.890625 C27.91801446 19.46400933 13.47680185 16.88598866 -3.1171875 18.390625 C-18.8305482 20.57075096 -32.99182692 28.49486382 -42.65234375 41.1484375 C-47.88354996 49.04255746 -50.34510066 58.14402448 -53.1015625 67.1171875 C-56.17726804 64.13070891 -59.01055996 61.19092463 -61.4765625 57.6796875 C-61.99992187 56.95910156 -62.52328125 56.23851562 -63.0625 55.49609375 C-64.89753442 51.29483073 -63.45981335 48.03759929 -61.859375 43.92578125 C-55.55241512 30.90447413 -47.05905706 20.4321279 -35.1015625 12.1171875 C-34.32425781 11.57578125 -33.54695313 11.034375 -32.74609375 10.4765625 C-22.74984129 4.01895079 -11.8146503 0.44639737 0 0 Z " fill="#030303" transform="translate(161.1015625,259.8828125)"/>
<path d="M0 0 C1.10037301 -0.00170885 2.20074601 -0.0034177 3.33446366 -0.00517833 C7.01642305 -0.00846888 10.69819964 0.00252351 14.38014221 0.01345825 C17.02153941 0.01402246 19.66292545 0.01379365 22.30432129 0.01257324 C27.98840662 0.01152601 33.67244594 0.01778571 39.3565197 0.02904892 C47.57466641 0.04532287 55.79279093 0.05051386 64.010952 0.0530249 C77.34529103 0.05739903 90.67960555 0.07070048 104.01393127 0.08963013 C116.96477638 0.10799623 129.91561483 0.12214916 142.86647034 0.13064575 C143.66514609 0.1311712 144.46382184 0.13169665 145.28669988 0.13223802 C149.2935365 0.13484814 153.30037316 0.13737555 157.30720985 0.13986182 C190.53279173 0.16058554 223.75834357 0.19580339 256.98390198 0.24050903 C257.61671448 2.04129028 257.61671448 2.04129028 257.98390198 4.24050903 C256.8546853 5.93433405 255.70907067 7.62094823 254.46046448 9.22879028 C252.33154764 12.12929868 250.69563214 15.25341791 248.99952698 18.42019653 C247.98390198 20.24050903 247.98390198 20.24050903 246.98390198 21.24050903 C244.46237306 21.47441252 241.9645503 21.64723142 239.43702698 21.77566528 C238.67134399 21.81740372 237.90566101 21.85914215 237.11677551 21.90214539 C230.03802548 22.27144184 222.95796128 22.46854416 215.87174988 22.62838745 C202.7890222 22.93205061 189.73730725 23.47531287 176.67372131 24.23971558 C164.48361422 24.94655059 152.28926682 25.49860565 140.08937073 26.00222778 C139.29159525 26.03518196 138.49381977 26.06813614 137.67186928 26.10208893 C129.52284213 26.43795245 121.37359521 26.76813586 113.22410297 27.09251308 C110.12181218 27.21637399 107.0195936 27.3419877 103.91738319 27.46784401 C101.77472192 27.5540168 99.631968 27.63751544 97.48919678 27.72090149 C91.42705419 27.96335798 85.38119205 28.2625761 79.33375549 28.75857544 C72.7799135 29.29129855 66.23975263 29.48519861 59.66749573 29.63504028 C57.16681922 29.70378147 54.66616864 29.77347151 52.1655426 29.84402466 C48.28650002 29.95134606 44.40767216 30.05331295 40.52809143 30.13919067 C36.74057036 30.22513468 32.95429094 30.33443499 29.16749573 30.44754028 C28.02340744 30.46750565 26.87931915 30.48747101 25.70056152 30.50804138 C15.03030489 30.86275615 5.65006905 33.41420707 -3.01609802 39.74050903 C-4.06797302 40.49332153 -5.11984802 41.24613403 -6.20359802 42.02175903 C-8.67108379 43.96833114 -10.8186006 46.00377058 -13.01609802 48.24050903 C-16.44363026 49.95427515 -20.37406546 49.38196264 -24.14500427 49.37332153 C-25.04984055 49.37427826 -25.95467682 49.37523499 -26.88693237 49.3762207 C-28.80100067 49.37690176 -30.71507127 49.37505265 -32.62913513 49.37088013 C-35.57002407 49.36552465 -38.5107607 49.37083081 -41.4516449 49.37722778 C-43.30776503 49.37656711 -45.16388506 49.37528617 -47.02000427 49.37332153 C-48.34808861 49.37635788 -48.34808861 49.37635788 -49.70300293 49.37945557 C-55.90114395 49.35546311 -55.90114395 49.35546311 -57.01609802 48.24050903 C-57.01609802 35.41768703 -49.60117025 24.63828687 -40.84422302 15.86941528 C-33.98775044 9.49592626 -26.91471375 5.15152906 -18.01609802 2.24050903 C-17.03633971 1.89847002 -16.0565814 1.55643101 -15.04713345 1.20402718 C-10.07987358 -0.19516981 -5.12493278 -0.02920256 0 0 Z " fill="#FAFAFA" transform="translate(170.01609802246094,49.759490966796875)"/>
<path d="M0 0 C9.7760295 -0.64222092 16.48600592 0.18434193 25 5 C26.28323132 5.69776126 27.56713151 6.39429331 28.8515625 7.08984375 C35.94476475 10.97401598 42.82672442 15.10112036 49.609375 19.5078125 C52.38183285 21.23833358 55.21317858 22.69970825 58.16796875 24.08984375 C60.05778263 25.02870651 61.78326278 26.11775813 63.5625 27.25 C68.89763252 29.96606746 73.04223122 29.24448417 78.6875 28 C84.34082861 26.80526899 90.26970551 26.00854142 96 27 C98.54805796 28.9131883 99.78419108 30.09868037 100.53125 33.21875 C100.5209375 33.9715625 100.510625 34.724375 100.5 35.5 C100.51546875 36.62921875 100.51546875 36.62921875 100.53125 37.78125 C99.76542975 40.97967575 98.63730421 42.02926719 96 44 C93.285669 45.05196203 90.53573437 45.66849546 87.6875 46.25 C86.49350586 46.4982251 86.49350586 46.4982251 85.27539062 46.75146484 C76.0606086 48.53751722 66.19935701 50.42335796 57.75 45.375 C56.16211172 44.25643831 54.57876363 43.13140392 53 42 C51.28458649 41.03756553 49.55459287 40.10075573 47.8125 39.1875 C42.42265324 36.28408684 37.18457883 33.15553537 31.95043945 29.9831543 C28.52844939 27.89665075 28.52844939 27.89665075 25 26 C24.95055934 30.64475959 24.91426137 35.28936596 24.89013672 39.93432617 C24.88007959 41.51443144 24.86643215 43.0945181 24.84912109 44.67456055 C24.82485978 46.9458475 24.81351418 49.21688836 24.8046875 51.48828125 C24.79436493 52.19463211 24.78404236 52.90098297 24.77340698 53.6287384 C24.77256225 57.32197792 24.89279477 58.83919216 27 62 C29.36966374 62.46323629 29.36966374 62.46323629 32.16479492 62.40063477 C33.24319138 62.41397354 34.32158783 62.42731232 35.43266296 62.4410553 C36.60343887 62.44117111 37.77421478 62.44128693 38.98046875 62.44140625 C40.18181961 62.45461411 41.38317047 62.46782196 42.6209259 62.48143005 C46.47647364 62.52246032 50.33178286 62.54402174 54.1875 62.5625 C58.0252902 62.58631032 61.86285628 62.61452174 65.70051575 62.65428162 C68.09113283 62.67856395 70.48186803 62.69348313 72.87260437 62.69789124 C86.01290443 62.82022756 86.01290443 62.82022756 91.3125 66.6875 C97.12354104 74.65077847 95.67131347 85.67865356 94.34765625 94.93359375 C93.38801296 100.9868128 92.20537652 106.99167463 91 113 C90.7397752 114.3298574 90.47986006 115.65977542 90.22021484 116.98974609 C89.52829374 120.51142828 88.80516588 124.02562417 88.06228638 127.53689575 C87.77287894 128.91885718 87.49091902 130.30240112 87.21676636 131.68746948 C84.75012106 144.04874514 84.75012106 144.04874514 81.12109375 147.359375 C76.31466542 149.88590804 72.29170996 150.03252877 67 149 C63.9375 146.625 63.9375 146.625 62 144 C61.34 143.34 60.68 142.68 60 142 C59.734375 139.42578125 59.734375 139.42578125 59.75 136.3125 C59.74226563 134.79076172 59.74226563 134.79076172 59.734375 133.23828125 C60.03211925 129.60842854 60.9690249 126.49031935 62 123 C62.5602421 120.17915 62.99967042 117.34213942 63.4375 114.5 C64.33901126 108.69618785 65.39252695 102.93509526 66.55493164 97.17773438 C66.6940522 96.48556824 66.83317276 95.7934021 66.97650909 95.08026123 C67.31700144 93.38670572 67.65840763 91.69333398 68 90 C67.23293732 90.00888245 66.46587463 90.01776489 65.67556763 90.0269165 C58.40894293 90.10742009 51.14253771 90.16814446 43.87558174 90.20724869 C40.1404921 90.22802924 36.4057742 90.25616923 32.67089844 90.30175781 C29.05930865 90.34556031 25.448074 90.36920859 21.83623886 90.37950897 C20.46565036 90.38683928 19.09507894 90.40115198 17.72464371 90.42292023 C7.96452358 90.57163551 0.04532325 89.75715561 -7.9375 83.8125 C-13.63104024 76.04858149 -13.46726949 67.32834108 -13.46875 58.0234375 C-13.47586745 56.68543181 -13.48356871 55.34742911 -13.49182129 54.00942993 C-13.50518856 51.22071819 -13.50686851 48.43228928 -13.50097656 45.64355469 C-13.49506413 42.08477916 -13.52576883 38.52736022 -13.56609344 34.96884727 C-13.59203285 32.2114237 -13.59484279 29.45432517 -13.59120178 26.69679642 C-13.59369731 24.75200141 -13.61832683 22.80727494 -13.64343262 20.86264038 C-13.58633216 13.55013563 -13.10681844 9.38486489 -8 4 C-4.95025014 1.87441676 -3.90748853 2 0 2 C0 1.34 0 0.68 0 0 Z " fill="#FAFAFA" transform="translate(251,160)"/>
<path d="M0 0 C2.68106446 1.70679786 5.03490443 3.47692655 7.421875 5.5703125 C8.28554687 6.22 9.14921875 6.8696875 10.0390625 7.5390625 C16.74069031 13.25192555 18.84398099 21.78204787 19.859375 30.1953125 C19.57555677 39.17106399 15.58347643 48.59062691 9.3125 54.95703125 C1.07689239 61.98452287 -6.88033375 64.18413728 -17.68359375 64.00390625 C-25.98515899 63.07965977 -32.33390538 59.27610559 -38.078125 53.3203125 C-45.53621006 43.95109315 -46.90699236 34.31462675 -45.578125 22.5703125 C-42.02560328 12.7829616 -35.75935566 5.42318722 -26.96484375 -0.05859375 C-19.00553943 -3.28087266 -7.94488397 -3.1744842 0 0 Z " fill="#030303" transform="translate(179.578125,305.4296875)"/>
<path d="M0 0 C5.54707772 3.90698129 9.93887436 8.1314869 11.6484375 14.8828125 C12.85384138 22.14202251 12.81328401 29.54675014 9 36 C4.82999869 41.77089837 0.15417059 47.33290161 -7 49 C-14.42189691 49.72838864 -22.74792844 50.49312967 -29.328125 46.40234375 C-35.89653242 40.89286182 -41.30200735 34.24204857 -42.2734375 25.5546875 C-42.6033828 16.84920761 -40.21333251 10.69533238 -34.5 4.125 C-33.675 3.42375 -32.85 2.7225 -32 2 C-30.7934375 0.9171875 -30.7934375 0.9171875 -29.5625 -0.1875 C-20.57132939 -6.54710848 -9.23501088 -5.12881354 0 0 Z " fill="#FAFAFA" transform="translate(288,103)"/>
<path d="M0 0 C0.98150276 -0.00810448 0.98150276 -0.00810448 1.98283386 -0.01637268 C4.13493805 -0.02882808 6.28569573 -0.01239068 8.43774414 0.00561523 C9.9408017 0.00546015 11.44385965 0.00396962 12.94691467 0.00120544 C16.0933709 -0.00017717 19.23937053 0.01235431 22.38574219 0.03515625 C26.40852129 0.06351646 30.43054072 0.0608086 34.45337582 0.04806614 C37.55646695 0.0410928 40.65938416 0.04891742 43.76245308 0.06132317 C45.24513646 0.06582336 46.7278386 0.06618703 48.21052361 0.06225777 C50.28786999 0.05932976 52.36418997 0.07592675 54.44140625 0.09765625 C55.62101425 0.10305923 56.80062225 0.10846222 58.01597595 0.11402893 C62.63911957 0.66222957 65.992835 2.2091436 69.28540039 5.50170898 C69.60704484 8.97546908 69.76630909 11.52904396 68.20101929 14.69493103 C65.35910958 17.37537014 63.18139403 17.01639954 59.32299805 17.03515625 C58.26637215 17.04807961 58.26637215 17.04807961 57.18840027 17.06126404 C54.85838122 17.08397739 52.52956002 17.0771749 50.19946289 17.06811523 C48.57904706 17.07334945 46.95863428 17.07962519 45.33822632 17.0868988 C41.94026364 17.09731358 38.54271943 17.09272788 35.14477539 17.078125 C30.79425163 17.06095736 26.44505107 17.08440032 22.09467506 17.1196146 C18.74711384 17.14160057 15.39986843 17.14014398 12.05225754 17.13184929 C10.44870937 17.13102998 8.84513797 17.13788953 7.24165726 17.15262032 C4.99581523 17.17008492 2.75233956 17.15551134 0.5065918 17.1328125 C-0.77009369 17.13185074 -2.04677917 17.13088898 -3.3621521 17.12989807 C-7.60924059 16.33406916 -9.09104835 14.87356159 -11.71459961 11.50170898 C-12.33959961 7.93920898 -12.33959961 7.93920898 -11.71459961 4.50170898 C-7.95887875 0.63242175 -5.30683898 0.00074806 0 0 Z " fill="#070707" transform="translate(128.714599609375,200.498291015625)"/>
<path d="M0 0 C4.76887637 -0.02475064 9.53771521 -0.04288403 14.30664062 -0.05493164 C15.92839204 -0.05995505 17.55013895 -0.06677494 19.171875 -0.07543945 C21.50521969 -0.08759229 23.8385044 -0.09324828 26.171875 -0.09765625 C26.89493835 -0.10281754 27.61800171 -0.10797882 28.36297607 -0.11329651 C31.7201275 -0.11366918 34.79106108 -0.04907619 38 1 C37.9108799 2.35524008 37.80272007 3.709229 37.6875 5.0625 C37.60048828 6.19365234 37.60048828 6.19365234 37.51171875 7.34765625 C37 10 37 10 34 17 C28.39 16.34 22.78 15.68 17 15 C17.433125 16.44632812 17.86625 17.89265625 18.3125 19.3828125 C18.87542298 21.29675064 19.43789956 23.21082012 20 25.125 C20.28617187 26.07632812 20.57234375 27.02765625 20.8671875 28.0078125 C24.19229712 39.40818834 24.19229712 39.40818834 21.5390625 45.17578125 C20.90742188 46.21089844 20.27578125 47.24601562 19.625 48.3125 C18.99851562 49.36050781 18.37203125 50.40851563 17.7265625 51.48828125 C16 54 16 54 14 55 C11.60498192 47.56015662 9.48287755 40.13058175 7.65039062 32.53198242 C5.96776361 25.65498107 3.9739253 18.87135411 1.93017578 12.09375 C1.67993652 11.24425781 1.42969727 10.39476562 1.171875 9.51953125 C0.8330127 8.39188354 0.8330127 8.39188354 0.48730469 7.24145508 C-0.04978682 4.77099561 -0.08325452 2.52066941 0 0 Z " fill="#080808" transform="translate(472,262)"/>
<path d="M0 0 C1 1 1 1 1.12025452 2.75270081 C1.1169236 3.89520546 1.1169236 3.89520546 1.11352539 5.06079102 C1.11344986 5.92160782 1.11337433 6.78242462 1.11329651 7.66932678 C1.10813522 8.60473801 1.10297394 9.54014923 1.09765625 10.50390625 C1.0962413 11.45692123 1.09482635 12.40993622 1.09336853 13.39183044 C1.08775152 16.44875165 1.07519616 19.50560077 1.0625 22.5625 C1.05748719 24.62955624 1.05292391 26.69661362 1.04882812 28.76367188 C1.03777656 33.84247588 1.02050055 38.9212257 1 44 C0.34 44 -0.32 44 -1 44 C-1.433125 44.928125 -1.433125 44.928125 -1.875 45.875 C-3 48 -3 48 -5 50 C-7.125 49.625 -7.125 49.625 -9 49 C-9.13051758 48.41210693 -9.26103516 47.82421387 -9.39550781 47.21850586 C-12.30218134 34.16774534 -15.22021511 21.13915244 -19.11328125 8.33984375 C-20 5 -20 5 -20 1 C-13.36376475 0.20929963 -6.68723737 -0.4593254 0 0 Z " fill="#F8F8F8" transform="translate(487,191)"/>
<path d="M0 0 C-3 2 -3 2 -5.09375 3.15625 C-15.50081253 8.96798622 -23.65425923 16.15173859 -29.26953125 26.75 C-31.49912627 29.64897682 -33.51066781 30.14348331 -37 31 C-13.28314607 -2.5988764 -13.28314607 -2.5988764 0 0 Z " fill="#494A49" transform="translate(149,53)"/>
<path d="M0 0 C0 4.09459203 -1.96927276 6.76750835 -4 10.1875 C-4.57234375 11.16879883 -4.57234375 11.16879883 -5.15625 12.16992188 C-6.09838932 13.78333545 -7.04844266 15.39212298 -8 17 C-9 14 -9 14 -7.63671875 11.15234375 C-6.67185547 9.56099609 -6.67185547 9.56099609 -5.6875 7.9375 C-4.73423828 6.34228516 -4.73423828 6.34228516 -3.76171875 4.71484375 C-2 2 -2 2 0 0 Z " fill="#F5F1F3" transform="translate(504,299)"/>
<path d="M0 0 C0.66 0.66 1.32 1.32 2 2 C1.45730469 2.47050781 0.91460937 2.94101562 0.35546875 3.42578125 C-0.35996094 4.04839844 -1.07539062 4.67101562 -1.8125 5.3125 C-2.52019531 5.92738281 -3.22789063 6.54226563 -3.95703125 7.17578125 C-5.70136739 8.73334335 -7.36778041 10.32658875 -9 12 C-9.66 11.67 -10.32 11.34 -11 11 C-9.92173635 9.72486237 -8.83714481 8.45507431 -7.75 7.1875 C-7.14671875 6.47980469 -6.5434375 5.77210938 -5.921875 5.04296875 C-4.07629602 3.08110329 -2.20054668 1.54330375 0 0 Z " fill="#232323" transform="translate(120,277)"/>
<path d="M0 0 C0.33 0 0.66 0 1 0 C2.00926479 4.15626368 2.10239579 8.04365094 2.0625 12.3125 C2.05347656 13.56675781 2.04445313 14.82101563 2.03515625 16.11328125 C2.01775391 17.54220703 2.01775391 17.54220703 2 19 C1.67 19 1.34 19 1 19 C0.63752129 16.39674384 0.28472345 13.79279598 -0.0625 11.1875 C-0.2181543 10.08051758 -0.2181543 10.08051758 -0.37695312 8.95117188 C-0.82086566 5.56825221 -1.09314992 3.27944975 0 0 Z " fill="#F0EBEC" transform="translate(522,180)"/>
<path d="M0 0 C0 4.02486306 -1.50395272 6.92910547 -4 10 C-7.25 11.4375 -7.25 11.4375 -10 12 C-3.84965831 3.55353075 -3.84965831 3.55353075 0 0 Z " fill="#282828" transform="translate(122,72)"/>
<path d="M0 0 C0 0.66 0 1.32 0 2 C-2.30078125 3.76171875 -2.30078125 3.76171875 -5.3125 5.6875 C-6.29863281 6.33074219 -7.28476562 6.97398437 -8.30078125 7.63671875 C-9.19152344 8.08660156 -10.08226562 8.53648437 -11 9 C-11.99 8.67 -12.98 8.34 -14 8 C-12.68 7.67 -11.36 7.34 -10 7 C-10 6.34 -10 5.68 -10 5 C-8.3203125 3.7109375 -8.3203125 3.7109375 -6.125 2.375 C-5.40570313 1.92898438 -4.68640625 1.48296875 -3.9453125 1.0234375 C-2 0 -2 0 0 0 Z " fill="#F4F1F2" transform="translate(435,381)"/>
<path d="M0 0 C-1.55500981 3.81684226 -4.03595495 6.19195732 -7 9 C-7.99 8.67 -8.98 8.34 -10 8 C-8.71451591 6.66070495 -7.42141845 5.32871357 -6.125 4 C-5.04605469 2.88625 -5.04605469 2.88625 -3.9453125 1.75 C-2 0 -2 0 0 0 Z " fill="#363636" transform="translate(436,277)"/>
<path d="M0 0 C0.99 0.33 1.98 0.66 3 1 C1.71034824 2.37562854 0.37310707 3.70766393 -1 5 C-1.66 5 -2.32 5 -3 5 C-3 7.64 -3 10.28 -3 13 C-3.33 13 -3.66 13 -4 13 C-4.63019694 4.80743982 -4.63019694 4.80743982 -2 1.4375 C-1.34 0.963125 -0.68 0.48875 0 0 Z " fill="#C9C9C9" transform="translate(369,148)"/>
<path d="M0 0 C0.66 0 1.32 0 2 0 C2.33 1.32 2.66 2.64 3 4 C3.66 4 4.32 4 5 4 C5.33 5.32 5.66 6.64 6 8 C4.125 7.375 4.125 7.375 2 6 C0.75 2.875 0.75 2.875 0 0 Z " fill="#F2EFF0" transform="translate(95,321)"/>
<path d="M0 0 C0.66 0.33 1.32 0.66 2 1 C-0.39509338 3.89932357 -2.31245243 4.50168276 -6 5 C-2.25 1.125 -2.25 1.125 0 0 Z " fill="#F4F1F2" transform="translate(408,396)"/>
</svg>
